<svg width="191" height="46" viewBox="0 0 191 46" fill="none" xmlns="http://www.w3.org/2000/svg">
<path d="M64 0H90V18.4865V38H64V0Z" fill="#FF7A00"/>
<path d="M0.919797 37V36.244L1.6758 36.028C2.1558 35.884 2.4558 35.68 2.5758 35.416C2.7198 35.128 2.7918 34.732 2.7918 34.228C2.8158 32.836 2.8278 31.444 2.8278 30.052C2.8278 28.66 2.8278 27.256 2.8278 25.84V24.364C2.8278 22.972 2.8278 21.58 2.8278 20.188C2.8278 18.796 2.8158 17.404 2.7918 16.012C2.7918 15.508 2.7318 15.124 2.6118 14.86C2.4918 14.572 2.1918 14.356 1.7118 14.212L0.919797 13.96V13.204H10.9998C13.8078 13.204 15.9678 13.744 17.4798 14.824C19.0158 15.88 19.7838 17.368 19.7838 19.288C19.7838 20.344 19.3638 21.412 18.5238 22.492C17.7078 23.572 16.4478 24.4 14.7438 24.976L19.6398 34.516C20.0478 35.308 20.6838 35.848 21.5478 36.136L22.2318 36.28V37H15.8598L10.4958 25.768H7.9038C7.9038 27.472 7.9038 29.008 7.9038 30.376C7.9038 31.744 7.9158 33.028 7.9398 34.228C7.9398 34.708 8.0118 35.092 8.1558 35.38C8.3238 35.668 8.6358 35.872 9.0918 35.992L9.9558 36.244V37H0.919797ZM7.9038 24.724H9.8478C11.5518 24.724 12.7998 24.292 13.5918 23.428C14.3838 22.564 14.7798 21.244 14.7798 19.468C14.7798 17.692 14.3958 16.384 13.6278 15.544C12.8838 14.68 11.6718 14.248 9.9918 14.248H7.9398C7.9398 15.184 7.9278 16.144 7.9038 17.128C7.9038 18.088 7.9038 19.18 7.9038 20.404C7.9038 21.604 7.9038 23.044 7.9038 24.724ZM27.5238 17.2C26.7318 17.2 26.0598 16.948 25.5078 16.444C24.9558 15.94 24.6798 15.304 24.6798 14.536C24.6798 13.744 24.9558 13.108 25.5078 12.628C26.0598 12.124 26.7318 11.872 27.5238 11.872C28.3158 11.872 28.9878 12.124 29.5398 12.628C30.0918 13.108 30.3678 13.744 30.3678 14.536C30.3678 15.304 30.0918 15.94 29.5398 16.444C28.9878 16.948 28.3158 17.2 27.5238 17.2ZM23.3838 37V36.316L23.9238 36.172C24.4038 36.028 24.7278 35.812 24.8958 35.524C25.0638 35.236 25.1598 34.852 25.1838 34.372V27.748C25.1838 27.004 25.1838 26.32 25.1838 25.696C25.1838 25.048 25.1718 24.388 25.1478 23.716C25.1478 23.236 25.0518 22.864 24.8598 22.6C24.6918 22.312 24.3678 22.12 23.8878 22.024L23.3838 21.916V21.268L29.6838 19.18L30.1158 19.576L30.0078 24.688V34.408C30.0078 34.888 30.0918 35.272 30.2598 35.56C30.4518 35.848 30.7758 36.064 31.2318 36.208L31.6278 36.316V37H23.3838ZM33.2627 37V36.316L33.8027 36.172C34.7627 35.908 35.2547 35.32 35.2787 34.408C35.2787 33.568 35.2787 32.74 35.2787 31.924C35.3027 31.084 35.3147 30.256 35.3147 29.44V20.836H33.2627V20.044L34.0547 19.9C34.5347 19.828 34.8827 19.66 35.0987 19.396C35.3147 19.108 35.4707 18.712 35.5667 18.208C35.8307 17.248 36.1787 16.42 36.6107 15.724C37.0667 15.004 37.6067 14.344 38.2307 13.744C39.1187 12.88 40.0667 12.28 41.0747 11.944C42.0827 11.608 43.0667 11.44 44.0267 11.44C44.9627 11.44 45.8147 11.632 46.5827 12.016C47.3747 12.376 47.7707 13 47.7707 13.888C47.7707 14.512 47.5787 15.016 47.1947 15.4C46.8347 15.76 46.3067 15.94 45.6107 15.94C44.5067 15.94 43.5347 15.292 42.6947 13.996L42.2627 13.492C41.9747 13.132 41.6867 12.988 41.3987 13.06C41.1107 13.132 40.9067 13.372 40.7867 13.78C40.5947 14.548 40.4387 15.448 40.3187 16.48C40.2227 17.512 40.1627 18.592 40.1387 19.72H44.2787V20.836H40.1387V29.44C40.1387 30.256 40.1387 31.072 40.1387 31.888C40.1627 32.68 40.1747 33.484 40.1747 34.3C40.1747 35.26 40.6547 35.848 41.6147 36.064L42.5507 36.316V37H33.2627ZM55.5512 45.316V44.632L56.2712 44.452C57.2072 44.188 57.6752 43.588 57.6752 42.652V35.704C56.9792 36.256 56.1752 36.688 55.2632 37C54.3752 37.336 53.3792 37.504 52.2752 37.504C50.2112 37.504 48.5072 36.736 47.1632 35.2C45.8432 33.664 45.1832 31.444 45.1832 28.54C45.1832 26.548 45.5192 24.856 46.1912 23.464C46.8632 22.072 47.7872 21.016 48.9632 20.296C50.1392 19.552 51.4952 19.18 53.0312 19.18C54.0632 19.18 55.0232 19.336 55.9112 19.648C56.7992 19.96 57.6032 20.392 58.3232 20.944L62.0312 19.18L62.5352 19.54L62.4272 24.4V42.76C62.4272 43.696 62.8472 44.284 63.6872 44.524L64.0832 44.632V45.316H55.5512ZM54.5072 35.776C55.4912 35.776 56.5112 35.404 57.5672 34.66V21.7C57.0872 21.436 56.6072 21.232 56.1272 21.088C55.6472 20.944 55.1312 20.872 54.5792 20.872C53.2592 20.872 52.2152 21.46 51.4472 22.636C50.7032 23.812 50.3312 25.756 50.3312 28.468C50.3312 31.108 50.6912 32.992 51.4112 34.12C52.1552 35.224 53.1872 35.776 54.5072 35.776ZM69.3597 17.2C68.5677 17.2 67.8957 16.948 67.3437 16.444C66.7917 15.94 66.5157 15.304 66.5157 14.536C66.5157 13.744 66.7917 13.108 67.3437 12.628C67.8957 12.124 68.5677 11.872 69.3597 11.872C70.1517 11.872 70.8237 12.124 71.3757 12.628C71.9277 13.108 72.2037 13.744 72.2037 14.536C72.2037 15.304 71.9277 15.94 71.3757 16.444C70.8237 16.948 70.1517 17.2 69.3597 17.2ZM65.2197 37V36.316L65.7597 36.172C66.2397 36.028 66.5637 35.812 66.7317 35.524C66.8997 35.236 66.9957 34.852 67.0197 34.372V27.748C67.0197 27.004 67.0197 26.32 67.0197 25.696C67.0197 25.048 67.0077 24.388 66.9837 23.716C66.9837 23.236 66.8877 22.864 66.6957 22.6C66.5277 22.312 66.2037 22.12 65.7237 22.024L65.2197 21.916V21.268L71.5197 19.18L71.9517 19.576L71.8437 24.688V34.408C71.8437 34.888 71.9277 35.272 72.0957 35.56C72.2877 35.848 72.6117 36.064 73.0677 36.208L73.4637 36.316V37H65.2197ZM75.0626 37V36.316L75.6026 36.136C76.0826 36.016 76.4066 35.812 76.5746 35.524C76.7666 35.236 76.8626 34.852 76.8626 34.372V23.824C76.8386 23.296 76.7426 22.9 76.5746 22.636C76.4066 22.348 76.0826 22.156 75.6026 22.06L75.0626 21.916V21.268L80.9306 19.18L81.3626 19.576L81.6866 22.744V22.996C82.0466 22.324 82.5026 21.7 83.0546 21.124C83.6066 20.548 84.2066 20.08 84.8546 19.72C85.5026 19.36 86.1506 19.18 86.7986 19.18C87.7106 19.18 88.3946 19.42 88.8506 19.9C89.3066 20.38 89.5346 20.992 89.5346 21.736C89.5346 22.552 89.3066 23.176 88.8506 23.608C88.3946 24.016 87.8426 24.22 87.1946 24.22C86.2346 24.22 85.4066 23.788 84.7106 22.924L84.6386 22.852C84.3986 22.564 84.1226 22.408 83.8106 22.384C83.5226 22.336 83.2346 22.48 82.9466 22.816C82.7066 23.056 82.4786 23.344 82.2626 23.68C82.0706 23.992 81.8906 24.364 81.7226 24.796V34.228C81.7226 34.684 81.8186 35.068 82.0106 35.38C82.2026 35.668 82.5266 35.872 82.9826 35.992L84.0626 36.316V37H75.0626ZM95.224 37.504C93.856 37.504 92.692 37.12 91.732 36.352C90.796 35.56 90.328 34.432 90.328 32.968C90.328 31.816 90.88 30.76 91.984 29.8C93.112 28.816 94.876 28.096 97.276 27.64C97.684 27.544 98.152 27.46 98.68 27.388C99.232 27.292 99.772 27.196 100.3 27.1V24.544C100.3 22.912 100.096 21.784 99.688 21.16C99.28 20.536 98.632 20.224 97.744 20.224H97.636C97.084 20.224 96.64 20.404 96.304 20.764C95.992 21.1 95.788 21.664 95.692 22.456L95.584 22.924C95.512 23.884 95.26 24.592 94.828 25.048C94.396 25.48 93.856 25.696 93.208 25.696C92.608 25.696 92.104 25.516 91.696 25.156C91.312 24.772 91.12 24.28 91.12 23.68C91.12 22.696 91.456 21.868 92.128 21.196C92.8 20.524 93.688 20.02 94.792 19.684C95.92 19.348 97.132 19.18 98.428 19.18C100.564 19.18 102.196 19.696 103.324 20.728C104.452 21.76 105.016 23.44 105.016 25.768V33.796C105.016 34.828 105.508 35.344 106.492 35.344H107.32L107.68 35.74C107.248 36.292 106.768 36.712 106.24 37C105.712 37.312 104.992 37.468 104.08 37.468C103.048 37.468 102.22 37.228 101.596 36.748C100.996 36.244 100.6 35.584 100.408 34.768C99.64 35.584 98.884 36.244 98.14 36.748C97.396 37.252 96.424 37.504 95.224 37.504ZM97.312 35.2C97.792 35.2 98.248 35.092 98.68 34.876C99.112 34.66 99.652 34.3 100.3 33.796V28.036C99.676 28.132 99.04 28.252 98.392 28.396C97.36 28.636 96.52 29.08 95.872 29.728C95.248 30.376 94.936 31.252 94.936 32.356C94.936 33.316 95.152 34.036 95.584 34.516C96.04 34.972 96.616 35.2 97.312 35.2ZM117.496 19.18C119.008 19.18 120.304 19.492 121.384 20.116C122.464 20.74 123.292 21.604 123.868 22.708C124.468 23.788 124.768 25.036 124.768 26.452C124.768 26.764 124.756 27.064 124.732 27.352C124.708 27.616 124.66 27.868 124.588 28.108H113.752C113.776 30.58 114.232 32.356 115.12 33.436C116.032 34.516 117.352 35.056 119.08 35.056C120.28 35.056 121.252 34.864 121.996 34.48C122.74 34.072 123.424 33.508 124.048 32.788L124.624 33.328C123.904 34.648 122.92 35.68 121.672 36.424C120.448 37.144 118.984 37.504 117.28 37.504C115.576 37.504 114.076 37.144 112.78 36.424C111.484 35.704 110.464 34.672 109.72 33.328C109 31.96 108.64 30.328 108.64 28.432C108.64 26.464 109.06 24.796 109.9 23.428C110.764 22.06 111.868 21.016 113.212 20.296C114.58 19.552 116.008 19.18 117.496 19.18ZM117.316 20.224C116.62 20.224 116.008 20.428 115.48 20.836C114.976 21.22 114.568 21.916 114.256 22.924C113.968 23.908 113.8 25.3 113.752 27.1H120.196C120.46 24.676 120.364 22.924 119.908 21.844C119.452 20.764 118.588 20.224 117.316 20.224ZM126.146 37V36.28L126.614 36.136C127.478 35.872 127.91 35.272 127.91 34.336V15.796C127.91 15.292 127.826 14.92 127.658 14.68C127.49 14.416 127.166 14.224 126.686 14.104L126.146 13.96V13.276L132.23 11.728L132.806 12.052L132.662 17.128V21.736C133.502 21.04 134.414 20.44 135.398 19.936C136.406 19.432 137.486 19.18 138.638 19.18C140.222 19.18 141.458 19.624 142.346 20.512C143.258 21.4 143.714 22.768 143.714 24.616V34.372C143.714 34.852 143.81 35.236 144.002 35.524C144.194 35.812 144.53 36.028 145.01 36.172L145.334 36.28V37H137.126V36.28L137.558 36.136C138.422 35.896 138.854 35.296 138.854 34.336V23.932C138.854 22.948 138.686 22.264 138.35 21.88C138.014 21.496 137.426 21.304 136.586 21.304C136.01 21.304 135.398 21.412 134.75 21.628C134.126 21.844 133.466 22.204 132.77 22.708V34.408C132.77 34.888 132.866 35.272 133.058 35.56C133.25 35.848 133.574 36.052 134.03 36.172L134.354 36.28V37H126.146ZM151.826 37.504C150.458 37.504 149.294 37.12 148.334 36.352C147.398 35.56 146.93 34.432 146.93 32.968C146.93 31.816 147.482 30.76 148.586 29.8C149.714 28.816 151.478 28.096 153.878 27.64C154.286 27.544 154.754 27.46 155.282 27.388C155.834 27.292 156.374 27.196 156.902 27.1V24.544C156.902 22.912 156.698 21.784 156.29 21.16C155.882 20.536 155.234 20.224 154.346 20.224H154.238C153.686 20.224 153.242 20.404 152.906 20.764C152.594 21.1 152.39 21.664 152.294 22.456L152.186 22.924C152.114 23.884 151.862 24.592 151.43 25.048C150.998 25.48 150.458 25.696 149.81 25.696C149.21 25.696 148.706 25.516 148.298 25.156C147.914 24.772 147.722 24.28 147.722 23.68C147.722 22.696 148.058 21.868 148.73 21.196C149.402 20.524 150.29 20.02 151.394 19.684C152.522 19.348 153.734 19.18 155.03 19.18C157.166 19.18 158.798 19.696 159.926 20.728C161.054 21.76 161.618 23.44 161.618 25.768V33.796C161.618 34.828 162.11 35.344 163.094 35.344H163.922L164.282 35.74C163.85 36.292 163.37 36.712 162.842 37C162.314 37.312 161.594 37.468 160.682 37.468C159.65 37.468 158.822 37.228 158.198 36.748C157.598 36.244 157.202 35.584 157.01 34.768C156.242 35.584 155.486 36.244 154.742 36.748C153.998 37.252 153.026 37.504 151.826 37.504ZM153.914 35.2C154.394 35.2 154.85 35.092 155.282 34.876C155.714 34.66 156.254 34.3 156.902 33.796V28.036C156.278 28.132 155.642 28.252 154.994 28.396C153.962 28.636 153.122 29.08 152.474 29.728C151.85 30.376 151.538 31.252 151.538 32.356C151.538 33.316 151.754 34.036 152.186 34.516C152.642 34.972 153.218 35.2 153.914 35.2ZM164.992 37V36.316L165.568 36.172C166.36 35.932 166.756 35.344 166.756 34.408V23.788C166.732 23.284 166.648 22.9 166.504 22.636C166.36 22.348 166.048 22.156 165.568 22.06L164.992 21.916V21.268L170.824 19.18L171.256 19.576L171.508 21.808C172.372 21.04 173.332 20.416 174.388 19.936C175.468 19.432 176.524 19.18 177.556 19.18C179.14 19.18 180.352 19.612 181.192 20.476C182.056 21.34 182.488 22.66 182.488 24.436V34.444C182.488 35.38 182.92 35.968 183.784 36.208L184.18 36.316V37H175.9V36.316L176.44 36.172C177.232 35.908 177.628 35.32 177.628 34.408V23.716C177.628 22.876 177.448 22.264 177.088 21.88C176.728 21.496 176.128 21.304 175.288 21.304C174.112 21.304 172.888 21.82 171.616 22.852V34.444C171.616 35.38 172.036 35.968 172.876 36.208L173.236 36.316V37H164.992Z" fill="black"/>
<rect x="187" y="33" width="4" height="4" fill="#FF7A00"/>
</svg>
